<svg width="40" height="40" viewBox="0 0 40 40" xmlns="http://www.w3.org/2000/svg">
  <!-- Cloud -->
  <path d="M30 18c0-1.1-.9-2-2-2-.3 0-.6.1-.8.2C26.4 14.8 24.4 14 22 14c-3.3 0-6 2.7-6 6 0 .2 0 .4.1.6C14.8 20.9 14 22.4 14 24c0 2.2 1.8 4 4 4h12c1.7 0 3-1.3 3-3 0-1.4-1-2.6-2.4-2.9.3-.7.4-1.4.4-2.1z" fill="#87CEEB"/>
  
  <!-- Raindrops -->
  <ellipse cx="16" cy="30" rx="1" ry="3" fill="#4A90E2"/>
  <ellipse cx="20" cy="32" rx="1" ry="3" fill="#4A90E2"/>
  <ellipse cx="24" cy="29" rx="1" ry="3" fill="#4A90E2"/>
  <ellipse cx="28" cy="31" rx="1" ry="3" fill="#4A90E2"/>
  
  <!-- Sun rays (partially visible) -->
  <circle cx="32" cy="8" r="2" fill="#FFD700"/>
  <line x1="32" y1="3" x2="32" y2="5" stroke="#FFD700" stroke-width="1"/>
  <line x1="35.5" y1="6.5" x2="34.5" y2="7.5" stroke="#FFD700" stroke-width="1"/>
  <line x1="37" y1="8" x2="35" y2="8" stroke="#FFD700" stroke-width="1"/>
</svg>